<?xml version="1.0" encoding="UTF-8" standalone="no"?>
<!DOCTYPE svg PUBLIC "-//W3C//DTD SVG 1.1//EN" "http://www.w3.org/Graphics/SVG/1.1/DTD/svg11.dtd">
<svg width="100%" height="100%" viewBox="0 0 140 140" version="1.1" xmlns="http://www.w3.org/2000/svg" xmlns:xlink="http://www.w3.org/1999/xlink" xml:space="preserve" xmlns:serif="http://www.serif.com/" style="fill-rule:evenodd;clip-rule:evenodd;stroke-linejoin:round;stroke-miterlimit:2;">
    <path d="M140,70C140,31.34 108.66,-0 70,-0C70,0 70,0 70,0C31.34,0 -0,31.34 -0,70C0,70 0,70 0,70C0,108.66 31.34,140 70,140C70,140 70,140 70,140C108.66,140 140,108.66 140,70L140,70Z" style="fill:rgb(255,219,0);"/>
    <path d="M116.072,36.026L77.104,36.026L60.296,108.649L77.441,108.649L83.346,83.088L95.8,83.088L102.535,65.56L87.497,65.56L90.265,52.829L109.269,52.829L116.072,36.026Z"/>
    <path d="M51.283,36.026L38.468,91.171L26.757,91.171L33.423,108.649L51.081,108.649L68.747,36.026L51.283,36.026Z"/>
</svg>
